<?xml version="1.0" encoding="UTF-8" standalone="no"?>
<!-- Created with Inkscape (http://www.inkscape.org/) -->

<svg
   xmlns:dc="http://purl.org/dc/elements/1.1/"
   xmlns:cc="http://creativecommons.org/ns#"
   xmlns:rdf="http://www.w3.org/1999/02/22-rdf-syntax-ns#"
   xmlns:svg="http://www.w3.org/2000/svg"
   xmlns="http://www.w3.org/2000/svg"
   xmlns:sodipodi="http://sodipodi.sourceforge.net/DTD/sodipodi-0.dtd"
   xmlns:inkscape="http://www.inkscape.org/namespaces/inkscape"
   width="150mm"
   height="80mm"
   viewBox="0 0 150 80"
   version="1.1"
   id="svg8"
   inkscape:version="0.92.1 r15371"
   sodipodi:docname="Chart-circle3.svg">
  <defs
     id="defs2" />
  <sodipodi:namedview
     id="base"
     pagecolor="#ffffff"
     bordercolor="#666666"
     borderopacity="1.0"
     inkscape:pageopacity="0.0"
     inkscape:pageshadow="2"
     inkscape:zoom="1.4"
     inkscape:cx="345.76175"
     inkscape:cy="177.18188"
     inkscape:document-units="mm"
     inkscape:current-layer="layer3"
     showgrid="false"
     width="296mm"
     inkscape:window-width="1920"
     inkscape:window-height="1017"
     inkscape:window-x="-8"
     inkscape:window-y="-8"
     inkscape:window-maximized="1" />
  <metadata
     id="metadata5">
    <rdf:RDF>
      <cc:Work
         rdf:about="">
        <dc:format>image/svg+xml</dc:format>
        <dc:type
           rdf:resource="http://purl.org/dc/dcmitype/StillImage" />
        <dc:title></dc:title>
      </cc:Work>
    </rdf:RDF>
  </metadata>
  <g
     inkscape:groupmode="layer"
     id="layer3"
     inkscape:label="kuva 2"
     style="display:inline">
    <path
       style="display:inline;opacity:1;vector-effect:none;fill:#2c97de;fill-opacity:1;stroke:none;stroke-width:4.72440958;stroke-linecap:square;stroke-linejoin:round;stroke-miterlimit:4;stroke-dasharray:none;stroke-dashoffset:0;stroke-opacity:1;paint-order:stroke fill markers"
       d="M 275.85156,17.808594 C 130.48651,22.719842 14.375182,140.51295 11.554688,285.93359 H 52.701172 C 55.422356,160.83012 156.66526,60.317458 281.78516,58.501953 c 3.14216,-2.639856 5.56741,-5.938011 7.07617,-9.623047 3.93409,-9.679241 1.0418,-20.619381 -7.26563,-27.482422 -1.73999,-1.423055 -3.67088,-2.62912 -5.74414,-3.58789 z"
       transform="scale(0.26458333)"
       id="path4499-07"
       inkscape:connector-curvature="0"
       sodipodi:nodetypes="ccccccc" />
    <path
       inkscape:connector-curvature="0"
       style="display:inline;opacity:1;vector-effect:none;fill:#393939;fill-opacity:1;stroke:none;stroke-width:1.25;stroke-linecap:square;stroke-linejoin:round;stroke-miterlimit:4;stroke-dasharray:none;stroke-dashoffset:0;stroke-opacity:1;paint-order:stroke fill markers"
       d="m 75.396947,4.5899003 c -0.804363,0.027245 -1.64365,0.06938 -2.446657,0.123433 0.54855,0.2536746 1.05943,0.5727792 1.519804,0.9492959 2.198008,1.815846 2.963258,4.7104248 1.922364,7.2713908 -0.399191,0.974999 -1.040872,1.847635 -1.872236,2.546097 0.280378,-0.009 0.59625,-0.01753 0.876725,-0.02267 33.447533,0.01793 60.752343,26.756006 61.471703,60.19581 h 10.84843 C 146.99622,36.218742 114.83804,4.6194097 75.396947,4.5899003 Z"
       id="path4499-0"
       sodipodi:nodetypes="ccccccccc" />
  </g>
</svg>
