<?xml version="1.0" encoding="UTF-8" standalone="no"?>
<!-- Created with Inkscape (http://www.inkscape.org/) -->

<svg
   xmlns:dc="http://purl.org/dc/elements/1.1/"
   xmlns:cc="http://creativecommons.org/ns#"
   xmlns:rdf="http://www.w3.org/1999/02/22-rdf-syntax-ns#"
   xmlns:svg="http://www.w3.org/2000/svg"
   xmlns="http://www.w3.org/2000/svg"
   xmlns:sodipodi="http://sodipodi.sourceforge.net/DTD/sodipodi-0.dtd"
   xmlns:inkscape="http://www.inkscape.org/namespaces/inkscape"
   width="150mm"
   height="80mm"
   viewBox="0 0 150 80"
   version="1.1"
   id="svg8"
   inkscape:version="0.92.1 r15371"
   sodipodi:docname="Chart-circle2.svg">
  <defs
     id="defs2" />
  <sodipodi:namedview
     id="base"
     pagecolor="#ffffff"
     bordercolor="#666666"
     borderopacity="1.0"
     inkscape:pageopacity="0.0"
     inkscape:pageshadow="2"
     inkscape:zoom="1.979899"
     inkscape:cx="242.7355"
     inkscape:cy="171.95435"
     inkscape:document-units="mm"
     inkscape:current-layer="layer2"
     showgrid="false"
     width="296mm"
     inkscape:window-width="1920"
     inkscape:window-height="1017"
     inkscape:window-x="-8"
     inkscape:window-y="-8"
     inkscape:window-maximized="1" />
  <metadata
     id="metadata5">
    <rdf:RDF>
      <cc:Work
         rdf:about="">
        <dc:format>image/svg+xml</dc:format>
        <dc:type
           rdf:resource="http://purl.org/dc/dcmitype/StillImage" />
        <dc:title />
      </cc:Work>
    </rdf:RDF>
  </metadata>
  <g
     inkscape:groupmode="layer"
     id="layer2"
     inkscape:label="kuva"
     style="display:inline">
    <path
       style="display:inline;opacity:1;vector-effect:none;fill:#2c97de;fill-opacity:1;stroke:none;stroke-width:4.72440958;stroke-linecap:square;stroke-linejoin:round;stroke-miterlimit:4;stroke-dasharray:none;stroke-dashoffset:0;stroke-opacity:1;paint-order:stroke fill markers"
       d="M 284.96484,17.347656 C 135.86726,17.418763 14.27976,136.8609 11.554688,285.93359 H 52.701172 C 55.419389,159.57425 158.57631,58.527847 284.96484,58.421875 c 23.74936,0.03442 47.35327,3.707233 69.99024,10.890625 6.10715,-2.288515 11.09335,-6.600061 14.00195,-12.107422 4.48933,-8.525582 3.39093,-18.690659 -2.83203,-26.208984 -0.37388,-0.437233 -0.7634,-0.862619 -1.16797,-1.275391 l -0.002,-0.002 C 339.05248,21.651778 312.0941,17.482461 284.96479,17.347609 Z M 354.95508,69.3125 c 6.49484,2.055702 12.8962,4.395851 19.18554,7.013672 -6.24884,-2.596558 -12.64418,-4.944845 -19.18554,-7.013672 z"
       transform="scale(0.26458333)"
       id="path4499-9-1"
       inkscape:connector-curvature="0"
       sodipodi:nodetypes="cccccccccccccc" />
    <path
       style="display:inline;opacity:1;vector-effect:none;fill:#393939;fill-opacity:1;stroke:none;stroke-width:1.25;stroke-linecap:square;stroke-linejoin:round;stroke-miterlimit:4;stroke-dasharray:none;stroke-dashoffset:0;stroke-opacity:1;paint-order:stroke fill markers"
       d="m 96.343875,7.8046194 c 0.107225,0.1093761 0.210462,0.222095 0.309541,0.3379641 1.646491,1.9892235 1.93711,4.6787335 0.749308,6.9344605 -0.769567,1.457156 -2.088833,2.597919 -3.704683,3.203423 25.109709,7.941419 42.596559,31.043456 43.170609,57.372794 h 10.84843 C 147.10465,44.376569 126.25268,16.97358 96.343875,7.8046194 Z"
       id="path4499"
       inkscape:connector-curvature="0"
       sodipodi:nodetypes="ccccccc" />
  </g>
</svg>
