<svg xmlns="http://www.w3.org/2000/svg" viewBox="0 0 150.6 38.92"><defs><style>.cls-1{fill:#2d2d2d;}.cls-2{fill:none;stroke:#2c97de;stroke-linejoin:round;stroke-width:1.32px;}</style></defs><g id="Layer_2" data-name="Layer 2"><g id="svg8"><g id="layer4"><path id="path4497-69" class="cls-1" d="M0,31.16H6.68L15.74,6.89l8.17,19.28,8-12.65L40,19.41l7.77-15.8L55.11.66,63,22.56l8,.06,8,3.42L87,13.52l8,12.72L102.59.73l7.83,2.88,8.22,13.47,7.86-6.85,11.79,5.68,11.32,15.25h1v7.76H0Z"/><path id="path4497" class="cls-2" d="M0,31.16H6.68L15.74,6.89l8.17,19.28,8-12.65L40,19.41l7.77-15.8L55.11.66,63,22.56l8,.06,8,3.42L87,13.52l8,12.72L102.59.73l7.83,2.88,8.22,13.47,7.86-6.85,11.79,5.68,11.32,15.25h1"/></g></g></g></svg>