<?xml version="1.0" encoding="UTF-8" standalone="no"?>
<!-- Created with Inkscape (http://www.inkscape.org/) -->

<svg
   xmlns:dc="http://purl.org/dc/elements/1.1/"
   xmlns:cc="http://creativecommons.org/ns#"
   xmlns:rdf="http://www.w3.org/1999/02/22-rdf-syntax-ns#"
   xmlns:svg="http://www.w3.org/2000/svg"
   xmlns="http://www.w3.org/2000/svg"
   xmlns:sodipodi="http://sodipodi.sourceforge.net/DTD/sodipodi-0.dtd"
   xmlns:inkscape="http://www.inkscape.org/namespaces/inkscape"
   width="52.916668mm"
   height="21.341669mm"
   viewBox="0 0 52.916668 21.341669"
   version="1.1"
   id="svg8"
   inkscape:version="0.92.1 r15371"
   sodipodi:docname="Chart-2.svg">
  <defs
     id="defs2" />
  <sodipodi:namedview
     id="base"
     pagecolor="#ffffff"
     bordercolor="#666666"
     borderopacity="1.0"
     inkscape:pageopacity="0.0"
     inkscape:pageshadow="2"
     inkscape:zoom="5.6"
     inkscape:cx="107.81935"
     inkscape:cy="37.733599"
     inkscape:document-units="mm"
     inkscape:current-layer="layer4"
     showgrid="false"
     inkscape:window-width="1920"
     inkscape:window-height="1017"
     inkscape:window-x="-8"
     inkscape:window-y="-8"
     inkscape:window-maximized="1" />
  <metadata
     id="metadata5">
    <rdf:RDF>
      <cc:Work
         rdf:about="">
        <dc:format>image/svg+xml</dc:format>
        <dc:type
           rdf:resource="http://purl.org/dc/dcmitype/StillImage" />
        <dc:title />
      </cc:Work>
    </rdf:RDF>
  </metadata>
  <g
     inkscape:groupmode="layer"
     id="layer4"
     inkscape:label="Layer 6">
    <path
       style="display:inline;fill:#2d2d2d;fill-opacity:1;stroke:none;stroke-width:0.465;stroke-linecap:butt;stroke-linejoin:round;stroke-miterlimit:4;stroke-dasharray:none;stroke-opacity:1"
       d="m 0,19.050195 2.9529391,-2.315104 2.5985861,-6.661829 2.8820687,6.803571 2.8112001,-4.464843 2.858445,2.078868 2.740327,-5.5751477 2.598586,-1.0394351 2.787574,7.7248888 2.834822,0.02362 2.834823,1.204799 2.787573,-4.417593 2.811198,4.488468 2.69308,-9.0005587 2.763951,1.015811 2.834823,9.1422987 2.83482,-6.803571 2.95294,2.244234 2.480466,-1.157552 3.071059,-0.383883 -0.177179,9.417841 H 0 Z"
       id="path4497-69"
       inkscape:connector-curvature="0"
       sodipodi:nodetypes="cccccccccccccccccccc" />
    <path
       style="display:inline;fill:none;stroke:#2c97de;stroke-width:0.465;stroke-linecap:butt;stroke-linejoin:round;stroke-miterlimit:4;stroke-dasharray:none;stroke-opacity:1"
       d="m 0,19.050195 2.9529391,-2.315104 2.5985861,-6.661829 2.8820687,6.803571 2.8112001,-4.464843 2.858445,2.078868 2.740327,-5.5751477 2.598586,-1.0394351 2.787574,7.7248888 2.834822,0.02362 2.834823,1.204799 2.787573,-4.417593 2.811198,4.488468 2.69308,-9.0005587 2.763951,1.015811 2.834823,9.1422987 2.83482,-6.803571 2.95294,2.244234 2.480466,-1.157552 3.071059,-0.383883"
       id="path4497"
       inkscape:connector-curvature="0"
       sodipodi:nodetypes="cccccccccccccccccccc" />
  </g>
</svg>
