<svg xmlns="http://www.w3.org/2000/svg" viewBox="0 0 410.08 201.44"><defs><style>.cls-1{fill:#393939;}.cls-2{fill:#2c97de;}</style></defs><g id="Layer_2" data-name="Layer 2"><g id="svg8"><g id="layer2"><path id="path4556" class="cls-1" d="M379.83,98.31a19.06,19.06,0,0,1-8,15.64c-5.88,4.82-17.11,1.72-17.64,1.3,0,0,25.15,37.25,25.15,86.19h30.75c.94-53-28.17-99.74-30.23-103.13Z"/><path id="path4499" class="cls-2" d="M205.06,0C93.23.05,2,89.63,0,201.44H30.86a174.1,174.1,0,0,1,323.3-86.19s10,4.48,18.11-.53c7.18-4.17,8-15.64,8-15.64A205.19,205.19,0,0,0,205.06,0Z"/></g></g></g></svg>