<svg xmlns="http://www.w3.org/2000/svg" viewBox="0 0 150.62 38.9"><defs><style>.cls-1{fill:#2d2d2d;}.cls-2{fill:none;stroke:#2c97de;stroke-linejoin:round;stroke-width:1.32px;}</style></defs><g id="Layer_2" data-name="Layer 2"><g id="svg8"><g id="layer3"><path id="path4497-6" class="cls-1" d="M0,13.25l7.5-.2,8.1,3.55,8-6.23,8,19L40,3.61,47.29.66l8,25.18,8-11.86L71,26l8.1-3.28,7.7-.27L94.91.79l7.63,2.82,8.1,15.67,7.7-5.83,7.91,12,11-17,12,4.76h1.42V38.9H0Z"/><path id="path4497" class="cls-2" d="M0,13.25l7.5-.2,8.1,3.55,8-6.23,8,19L40,3.61,47.29.66l8,25.18,8-11.86L71,26l8.1-3.28,7.7-.27L94.91.79l7.63,2.82,8.1,15.67,7.7-5.83,7.91,12,11-17,12,4.76h1.42"/></g></g></g></svg>