<?xml version="1.0" encoding="UTF-8" standalone="no"?>
<!-- Created with Inkscape (http://www.inkscape.org/) -->

<svg
   xmlns:dc="http://purl.org/dc/elements/1.1/"
   xmlns:cc="http://creativecommons.org/ns#"
   xmlns:rdf="http://www.w3.org/1999/02/22-rdf-syntax-ns#"
   xmlns:svg="http://www.w3.org/2000/svg"
   xmlns="http://www.w3.org/2000/svg"
   xmlns:sodipodi="http://sodipodi.sourceforge.net/DTD/sodipodi-0.dtd"
   xmlns:inkscape="http://www.inkscape.org/namespaces/inkscape"
   width="150mm"
   height="80mm"
   viewBox="0 0 150 80"
   version="1.1"
   id="svg8"
   inkscape:version="0.92.1 r15371"
   sodipodi:docname="Chart-circle.svg">
  <defs
     id="defs2" />
  <sodipodi:namedview
     id="base"
     pagecolor="#ffffff"
     bordercolor="#666666"
     borderopacity="1.0"
     inkscape:pageopacity="0.0"
     inkscape:pageshadow="2"
     inkscape:zoom="1.979899"
     inkscape:cx="265.52092"
     inkscape:cy="157.37699"
     inkscape:document-units="mm"
     inkscape:current-layer="layer2"
     showgrid="false"
     width="296mm"
     inkscape:window-width="1920"
     inkscape:window-height="1017"
     inkscape:window-x="-8"
     inkscape:window-y="-8"
     inkscape:window-maximized="1" />
  <metadata
     id="metadata5">
    <rdf:RDF>
      <cc:Work
         rdf:about="">
        <dc:format>image/svg+xml</dc:format>
        <dc:type
           rdf:resource="http://purl.org/dc/dcmitype/StillImage" />
        <dc:title />
      </cc:Work>
    </rdf:RDF>
  </metadata>
  <g
     inkscape:groupmode="layer"
     id="layer2"
     inkscape:label="kuva"
     style="display:inline">
    <path
       style="opacity:1;vector-effect:none;fill:#2c97de;fill-opacity:1;stroke:none;stroke-width:4.72440958;stroke-linecap:square;stroke-linejoin:round;stroke-miterlimit:4;stroke-dasharray:none;stroke-dashoffset:0;stroke-opacity:1;paint-order:stroke fill markers"
       d="M 498.75 200.42773 C 498.39588 199.5951 498.10418 198.73889 497.74023 197.91016 C 497.19928 196.67836 496.55869 195.48857 495.99609 194.26562 A 232.5124 232.5124 0 0 1 498.75 200.42773 z "
       id="path4568"
       transform="scale(0.26458333)" />
    <path
       style="opacity:1;vector-effect:none;fill:#2c97de;fill-opacity:1;stroke:none;stroke-width:4.72440958;stroke-linecap:square;stroke-linejoin:round;stroke-miterlimit:4;stroke-dasharray:none;stroke-dashoffset:0;stroke-opacity:1;paint-order:stroke fill markers"
       d="M 507.94531 225.93359 C 506.56261 221.22182 505.04048 216.55072 503.36133 211.93359 C 503.25205 211.63312 503.11443 211.34301 503.00391 211.04297 A 232.5124 232.5124 0 0 1 507.94531 225.93359 z "
       id="path4566"
       transform="scale(0.26458333)" />
    <path
       style="opacity:1;vector-effect:none;fill:#2c97de;fill-opacity:1;stroke:none;stroke-width:4.72440958;stroke-linecap:square;stroke-linejoin:round;stroke-miterlimit:4;stroke-dasharray:none;stroke-dashoffset:0;stroke-opacity:1;paint-order:stroke fill markers"
       d="M 512.9082 246.70508 C 512.5291 244.77087 512.24044 242.81755 511.8125 240.89453 C 511.35128 238.82197 510.74615 236.78697 510.22852 234.72852 A 232.5124 232.5124 0 0 1 512.9082 246.70508 z "
       id="path4564"
       transform="scale(0.26458333)" />
    <path
       style="opacity:1;vector-effect:none;fill:#2c97de;fill-opacity:1;stroke:none;stroke-width:4.72440958;stroke-linecap:square;stroke-linejoin:round;stroke-miterlimit:4;stroke-dasharray:none;stroke-dashoffset:0;stroke-opacity:1;paint-order:stroke fill markers"
       d="M 516.5625 272.81445 C 516.50797 272.1347 516.50775 271.44848 516.44727 270.76953 C 515.99877 265.73487 515.38647 260.72191 514.61328 255.74023 C 514.52488 255.17069 514.38558 254.61171 514.29297 254.04297 A 232.5124 232.5124 0 0 1 516.5625 272.81445 z "
       id="path4562"
       transform="scale(0.26458333)" />
    <path
       style="opacity:1;vector-effect:none;fill:#2c97de;fill-opacity:1;stroke:none;stroke-width:4.72440958;stroke-linecap:square;stroke-linejoin:round;stroke-miterlimit:4;stroke-dasharray:none;stroke-dashoffset:0;stroke-opacity:1;paint-order:stroke fill markers"
       d="M 549.98047 224.87109 C 550.61436 227.39577 551.35229 229.89289 551.91406 232.43555 C 552.20782 233.76514 552.39012 235.11894 552.66406 236.45312 A 273.58633 273.58633 0 0 0 549.98047 224.87109 z "
       id="path4560"
       transform="scale(0.26458333)" />
    <path
       style="opacity:1;vector-effect:none;fill:#2c97de;fill-opacity:1;stroke:none;stroke-width:4.72440958;stroke-linecap:square;stroke-linejoin:round;stroke-miterlimit:4;stroke-dasharray:none;stroke-dashoffset:0;stroke-opacity:1;paint-order:stroke fill markers"
       d="M 529.42773 169.26172 C 531.43126 173.27335 533.43563 177.28541 535.23633 181.38281 C 536.51779 184.29872 537.6113 187.28621 538.78906 190.24219 A 273.58633 273.58633 0 0 0 529.42773 169.26172 z "
       id="path4558"
       transform="scale(0.26458333)" />
    <path
       style="opacity:1;vector-effect:none;fill:#393939;fill-opacity:1;stroke:none;stroke-width:4.72440958;stroke-linecap:square;stroke-linejoin:round;stroke-miterlimit:4;stroke-dasharray:none;stroke-dashoffset:0;stroke-opacity:1;paint-order:stroke fill markers"
       d="m 517.99219,148.42633 c 0.0788,2.12526 -0.0629,4.12514 -0.44336,6.02149 -0.38046,1.89634 -0.99828,3.6889 -1.86914,5.39844 -0.87087,1.70954 -1.99626,3.33555 -3.38867,4.90039 -1.39242,1.56483 -3.05294,3.06901 -4.99805,4.53125 -0.78647,0.59122 -1.6655,1.11573 -2.61328,1.57422 -0.94779,0.45848 -1.96343,0.84969 -3.02344,1.17187 -2.12002,0.64436 -4.41706,1.01403 -6.69141,1.0918 -2.27434,0.0778 -4.52658,-0.13505 -6.5625,-0.65235 -1.01795,-0.25865 -1.98248,-0.5931 -2.86718,-1.00585 -0.88471,-0.41276 -1.06522,0.1226 -1.76758,-0.44782 l -0.61328,-1.00531 c 4.50655,7.50855 9.21031,16.29249 12.84179,24.26116 0.5626,1.22295 1.20319,2.41274 1.74414,3.64454 0.36395,0.82873 0.65565,1.68494 1.00977,2.51757 1.50479,3.503 2.92318,7.04249 4.25391,10.61524 0.11052,0.30004 0.24814,0.59015 0.35742,0.89062 1.67915,4.61713 3.20128,9.28823 4.58398,14 0.81829,2.91649 1.5795,5.84869 2.28321,8.79493 0.51763,2.05845 1.12276,4.09345 1.58398,6.16601 0.42794,1.92302 0.7166,3.87634 1.0957,5.81055 0.50084,2.43839 0.96249,4.88467 1.38477,7.33789 0.0926,0.56874 0.23191,1.12772 0.32031,1.69726 0.77319,4.98168 1.38549,9.99464 1.83399,15.0293 0.0605,0.67895 0.0607,1.36517 0.11523,2.04492 0.36898,4.36524 0.61453,8.74003 0.73633,13.11914 h 41.00195 c -0.19869,-7.80895 -0.73173,-15.60581 -1.59766,-23.36914 -0.28046,-2.6392 -0.58862,-5.27354 -0.94531,-7.90039 -0.82597,-6.10341 -1.85781,-12.17718 -3.09375,-18.21094 -0.27394,-1.33418 -0.45624,-2.68798 -0.75,-4.01757 -0.56177,-2.54266 -1.2997,-5.03978 -1.93359,-7.56446 -1.12009,-4.52235 -2.35552,-9.01535 -3.70508,-13.47461 -1.168,-3.81505 -2.38058,-7.61715 -3.71484,-11.3789 -1.19465,-3.28224 -2.45204,-6.5413 -3.77149,-9.77539 -1.17776,-2.95598 -2.27127,-5.94347 -3.55273,-8.85938 -1.8007,-4.0974 -3.80507,-8.10946 -5.8086,-12.12109 -0.98648,-2.01104 -1.99763,-4.00989 -3.0332,-5.9961 -2.4733,-4.66192 -5.65372,-10.31295 -8.40234,-14.83929 z"
       id="path4556"
       transform="scale(0.26458333)"
       inkscape:connector-curvature="0"
       sodipodi:nodetypes="ccccccsscccccccccccsccccccccccccccccccc" />
    <path
       style="opacity:1;vector-effect:none;fill:#2c97de;fill-opacity:1;stroke:none;stroke-width:4.72440958;stroke-linecap:square;stroke-linejoin:round;stroke-miterlimit:4;stroke-dasharray:none;stroke-dashoffset:0;stroke-opacity:1;paint-order:stroke fill markers"
       d="M 284.96484 17.347656 A 273.58633 273.58633 0 0 0 11.554688 285.93359 L 52.701172 285.93359 A 232.5124 232.5124 0 0 1 284.96484 58.421875 A 232.5124 232.5124 0 0 1 483.76758 171.00977 C 484.46994 171.58019 485.27545 172.07162 486.16016 172.48438 C 487.04486 172.89713 488.00939 173.23158 489.02734 173.49023 C 491.06326 174.00753 493.3155 174.22035 495.58984 174.14258 C 497.86419 174.06481 500.16123 173.69514 502.28125 173.05078 C 503.34126 172.7286 504.3569 172.33739 505.30469 171.87891 C 506.25247 171.42042 507.1315 170.89591 507.91797 170.30469 C 509.86308 168.84245 511.5236 167.33827 512.91602 165.77344 C 514.30843 164.2086 515.43382 162.58259 516.30469 160.87305 C 517.17555 159.16351 517.79337 157.37095 518.17383 155.47461 C 518.55429 153.57826 518.69599 151.57838 518.61719 149.45312 A 273.58633 273.58633 0 0 0 284.96484 17.347656 z "
       id="path4499"
       transform="scale(0.26458333)" />
  </g>
</svg>
