<svg xmlns="http://www.w3.org/2000/svg" viewBox="0 0 492.88 491.66"><defs><style>.cls-1{fill:#999;}</style></defs><g id="Layer_2" data-name="Layer 2"><g id="Layer_1-2" data-name="Layer 1"><g id="Layer_2-2" data-name="Layer 2"><g id="Capa_1" data-name="Capa 1"><path class="cls-1" d="M122.94,373.6a171.41,171.41,0,0,1-44.1-63.1c-25.2-61.8-13.4-135.3,35.8-186L160,170c2.5,2.5,7,.7,7.6-3L192.4,4.65a4,4,0,0,0-3.29-4.6,4.11,4.11,0,0,0-1.31,0L25.44,24.8c-3.7.6-5.5,5.1-3,7.6L67.94,78c-75.1,76.8-87.9,192-38.6,282a240,240,0,0,0,61.4,72.7c44.4,35.3,91.3,55,145.5,53.85l10.2-66.7C199.74,423.75,159.44,406.6,122.94,373.6Z"/><path class="cls-1" d="M424.94,413.7c75.1-76.8,87.9-192,38.6-282A240.12,240.12,0,0,0,402.14,59c-44.4-35.3-88.7-49.49-142.9-48.39L249,77.31c46.6-4,84.4,7.69,120.9,40.69A171.57,171.57,0,0,1,414,181.1c25.2,61.8,13.4,135.3-35.8,186l-45.4-45.4c-2.5-2.5-7-.7-7.6,3L300.44,487a4,4,0,0,0,3.29,4.6,3.61,3.61,0,0,0,1.31,0l162.4-24.8c3.7-.6,5.4-5.1,3-7.6Z"/></g></g></g></g></svg>